<svg width="384" height="402" viewBox="0 0 384 402" fill="none" xmlns="http://www.w3.org/2000/svg">
<path fill-rule="evenodd" clip-rule="evenodd" d="M358.71 62.9139C382.874 88.2781 384.133 128.557 383.406 164.388C382.761 196.201 361.695 223.733 354.811 255.112C346.778 291.727 368.231 339.03 339.572 364.184C310.721 389.507 266.17 359.322 228.882 365.638C195.163 371.349 164.621 409.989 133.015 399.172C101.075 388.241 103.238 340.393 81.3777 315.155C60.2309 290.74 21.3066 284.047 7.76663 254.569C-6.49105 223.529 -1.41584 186.381 6.49855 152.135C14.9724 115.469 27.7368 78.1259 54.7945 51.0791C82.3545 23.53 119.603 4.32254 157.707 0.987477C194.132 -2.20066 224.17 22.6822 258.477 33.2515C292.337 43.6834 334.571 37.5752 358.71 62.9139Z" fill="#374151"/>
</svg>
