<svg width="390" height="497" viewBox="0 0 390 497" fill="none" xmlns="http://www.w3.org/2000/svg">
<path fill-rule="evenodd" clip-rule="evenodd" d="M595.312 522.006C649.717 454.664 655.017 358.961 641.426 285.693C626.933 207.56 594.549 117.047 522.258 128.177C453.048 138.833 433.445 278.4 367.186 327.917C268.716 401.507 90.7932 339.813 71.4784 465.057C52.0607 590.968 242.138 513.067 334.837 537.682C364.88 545.66 388.461 559.971 421.444 557.986C481.073 554.398 546.687 582.194 595.312 522.006Z" fill="#1F2937"/>
<path fill-rule="evenodd" clip-rule="evenodd" d="M504.857 637.757C558.334 573.456 560.758 479.826 544.584 407.593C527.336 330.565 491.424 240.843 417.918 249.493C347.544 257.774 331.878 393.947 265.733 440.408C167.432 509.454 -16.2657 443.431 -32.085 565.576C-47.9886 688.371 143.766 617.961 239.238 644.982C270.18 653.739 294.719 668.502 328.352 667.587C389.158 665.933 457.061 695.226 504.857 637.757Z" fill="#374151"/>
</svg>
