<svg width="390" height="490" viewBox="0 0 390 490" fill="none" xmlns="http://www.w3.org/2000/svg">
<path fill-rule="evenodd" clip-rule="evenodd" d="M497.247 538.781C551.201 469.69 556.457 371.502 542.978 296.331C528.605 216.169 509.317 133.777 437.626 145.197C368.99 156.13 328.835 294.894 263.126 345.697C165.473 421.198 -2.71915 326.201 -21.8736 454.697C-41.1302 583.878 147.004 529.61 238.933 554.864C268.727 563.049 292.113 577.732 324.822 575.696C383.956 572.014 449.026 600.532 497.247 538.781Z" fill="#1F2937"/>
<path fill-rule="evenodd" clip-rule="evenodd" d="M572.44 569.611C626.394 500.519 631.649 402.332 618.171 327.161C603.798 246.999 526.817 138.277 455.126 149.696C386.49 160.629 362.835 323.893 297.126 374.696C199.473 450.197 5.28074 359.2 -13.8737 487.696C-33.1303 616.877 222.197 560.44 314.126 585.694C343.92 593.879 367.306 608.562 400.015 606.525C459.148 602.843 524.219 631.362 572.44 569.611Z" fill="#374151"/>
</svg>
