<svg fill="none" height="37" viewBox="0 0 43 37" width="43" xmlns="http://www.w3.org/2000/svg"><g fill="#1f2937" stroke="#1f2937"><path d="m19.9655 4.36091-16.62066 15.70689c-.88639.8376-2.34484.2092-2.34484-1.0104 0-.3921.16563-.766.45607-1.0295l18.55103-16.82978c.7526-.682767 1.8975-.692669 2.6618-.02302l7.15 6.26457c.4504.39463 1.1559.07478 1.1559-.52405v-3.76302c0-1.10457.8954-2 2-2h1.5126c1.1046 0 2 .89544 2 2.00001v8.72349c0 .5151.1987 1.0103.5547 1.3825l4.5626 4.7698c.2537.2652.3953.6181.3953.9852 0 1.2447-1.4837 1.8914-2.3955 1.044l-16.9038-15.70816c-.7723-.71762-1.969-.71261-2.7352.01147z"/><path d="m4.78992 22.3081v11.6919c0 1.1046.89542 2 1.99999 2h29.07559c1.1046 0 2-.8954 2-2v-11.6919c0-.5578-.2328-1.0902-.6424-1.4688l-14.5378-13.43731c-.7664-.70839-1.9487-.70839-2.7151 0l-14.53782 13.43731c-.40957.3786-.64246.911-.64246 1.4688z"/></g></svg>