<svg width="390" height="844" viewBox="0 0 390 844" fill="none" xmlns="http://www.w3.org/2000/svg">
<path fill-rule="evenodd" clip-rule="evenodd" d="M-83.6207 -55.5843C-137.574 13.5069 -142.83 111.695 -129.352 186.866C-114.979 267.028 -95.6904 349.419 -23.9997 338C44.6362 327.067 84.791 188.303 150.5 137.5C248.154 61.9987 416.346 156.996 435.5 28.4996C454.757 -100.681 266.622 -46.4136 174.693 -71.6677C144.899 -79.8525 121.513 -94.5354 88.8047 -92.4989C29.6708 -88.817 -35.3993 -117.335 -83.6207 -55.5843Z" fill="#1F2937"/>
<path fill-rule="evenodd" clip-rule="evenodd" d="M-158.814 -86.4139C-212.767 -17.3227 -218.023 80.8649 -204.545 156.036C-190.171 236.198 -113.19 344.92 -41.4997 333.501C27.1362 322.568 50.791 159.304 116.5 108.501C214.154 32.9998 408.346 123.997 427.5 -4.49935C446.757 -133.68 191.429 -77.2432 99.5003 -102.497C69.7066 -110.682 46.3206 -125.365 13.6119 -123.329C-45.522 -119.647 -110.592 -148.165 -158.814 -86.4139Z" fill="#374151"/>
<path fill-rule="evenodd" clip-rule="evenodd" d="M497.247 892.781C551.201 823.69 556.457 725.502 542.978 650.331C528.605 570.169 509.317 487.777 437.626 499.197C368.99 510.13 328.835 648.894 263.126 699.697C165.473 775.198 -2.71913 680.201 -21.8736 808.697C-41.1302 937.878 147.004 883.61 238.933 908.864C268.727 917.049 292.113 931.732 324.822 929.696C383.956 926.014 449.026 954.532 497.247 892.781Z" fill="#1F2937"/>
<path fill-rule="evenodd" clip-rule="evenodd" d="M572.44 923.611C626.394 854.519 631.649 756.332 618.171 681.161C603.798 600.999 526.817 492.277 455.126 503.696C386.49 514.629 362.835 677.893 297.126 728.696C199.473 804.197 5.28074 713.2 -13.8737 841.696C-33.1303 970.877 222.197 914.44 314.126 939.694C343.92 947.879 367.306 962.562 400.015 960.525C459.148 956.843 524.219 985.362 572.44 923.611Z" fill="#374151"/>
</svg>
