<svg width="140" height="140" viewBox="0 0 140 140" fill="none" xmlns="http://www.w3.org/2000/svg">
<path d="M0 70C0 31.3401 31.3401 0 70 0C108.66 0 140 31.3401 140 70C140 108.66 108.66 140 70 140C31.3401 140 0 108.66 0 70Z" fill="#92C3F4"/>
<mask id="mask0_69_5148" style="mask-type:alpha" maskUnits="userSpaceOnUse" x="0" y="0" width="140" height="140">
<path d="M0 70C0 31.3401 31.3401 0 70 0C108.66 0 140 31.3401 140 70C140 108.66 108.66 140 70 140C31.3401 140 0 108.66 0 70Z" fill="#D1D5DB"/>
</mask>
<g mask="url(#mask0_69_5148)">
<rect x="-7" y="92.3572" width="147" height="25.8929" fill="#1F2937"/>
</g>
<path d="M20.8466 110V98.3636H24.7784C25.6913 98.3636 26.4375 98.5284 27.017 98.858C27.6004 99.1837 28.0322 99.625 28.3125 100.182C28.5928 100.739 28.733 101.36 28.733 102.045C28.733 102.731 28.5928 103.354 28.3125 103.915C28.036 104.475 27.608 104.922 27.0284 105.256C26.4489 105.585 25.7064 105.75 24.8011 105.75H21.983V104.5H24.7557C25.3807 104.5 25.8826 104.392 26.2614 104.176C26.6402 103.96 26.9148 103.669 27.0852 103.301C27.2595 102.93 27.3466 102.511 27.3466 102.045C27.3466 101.58 27.2595 101.163 27.0852 100.795C26.9148 100.428 26.6383 100.14 26.2557 99.9318C25.8731 99.7197 25.3655 99.6136 24.733 99.6136H22.2557V110H20.8466ZM34.2727 110.182C33.4848 110.182 32.7936 109.994 32.1989 109.619C31.608 109.244 31.1458 108.72 30.8125 108.045C30.483 107.371 30.3182 106.583 30.3182 105.682C30.3182 104.773 30.483 103.979 30.8125 103.301C31.1458 102.623 31.608 102.097 32.1989 101.722C32.7936 101.347 33.4848 101.159 34.2727 101.159C35.0606 101.159 35.75 101.347 36.3409 101.722C36.9356 102.097 37.3977 102.623 37.7273 103.301C38.0606 103.979 38.2273 104.773 38.2273 105.682C38.2273 106.583 38.0606 107.371 37.7273 108.045C37.3977 108.72 36.9356 109.244 36.3409 109.619C35.75 109.994 35.0606 110.182 34.2727 110.182ZM34.2727 108.977C34.8712 108.977 35.3636 108.824 35.75 108.517C36.1364 108.21 36.4223 107.807 36.608 107.307C36.7936 106.807 36.8864 106.265 36.8864 105.682C36.8864 105.098 36.7936 104.555 36.608 104.051C36.4223 103.547 36.1364 103.14 35.75 102.83C35.3636 102.519 34.8712 102.364 34.2727 102.364C33.6742 102.364 33.1818 102.519 32.7955 102.83C32.4091 103.14 32.1231 103.547 31.9375 104.051C31.7519 104.555 31.6591 105.098 31.6591 105.682C31.6591 106.265 31.7519 106.807 31.9375 107.307C32.1231 107.807 32.4091 108.21 32.7955 108.517C33.1818 108.824 33.6742 108.977 34.2727 108.977ZM43.8196 110.182C43.0014 110.182 42.2969 109.989 41.706 109.602C41.1151 109.216 40.6605 108.684 40.3423 108.006C40.0241 107.328 39.8651 106.553 39.8651 105.682C39.8651 104.795 40.0279 104.013 40.3537 103.335C40.6832 102.653 41.1416 102.121 41.7287 101.739C42.3196 101.352 43.009 101.159 43.7969 101.159C44.4105 101.159 44.9635 101.273 45.456 101.5C45.9484 101.727 46.3518 102.045 46.6662 102.455C46.9806 102.864 47.1757 103.341 47.2514 103.886H45.9105C45.8082 103.489 45.581 103.136 45.2287 102.83C44.8802 102.519 44.4105 102.364 43.8196 102.364C43.2969 102.364 42.8385 102.5 42.4446 102.773C42.0545 103.042 41.7495 103.422 41.5298 103.915C41.3139 104.403 41.206 104.977 41.206 105.636C41.206 106.311 41.312 106.898 41.5241 107.398C41.7401 107.898 42.0431 108.286 42.4332 108.562C42.8272 108.839 43.2893 108.977 43.8196 108.977C44.1681 108.977 44.4844 108.917 44.7685 108.795C45.0526 108.674 45.2931 108.5 45.4901 108.273C45.687 108.045 45.8272 107.773 45.9105 107.455H47.2514C47.1757 107.97 46.9882 108.434 46.6889 108.847C46.3935 109.256 46.0014 109.581 45.5128 109.824C45.0279 110.062 44.4635 110.182 43.8196 110.182ZM50.4616 106.818L50.4389 105.159H50.7116L54.5298 101.273H56.1889L52.1207 105.386H52.0071L50.4616 106.818ZM49.2116 110V98.3636H50.5526V110H49.2116ZM54.7571 110L51.348 105.682L52.3026 104.75L56.4616 110H54.7571ZM61.2145 110.182C60.3736 110.182 59.6482 109.996 59.0384 109.625C58.4323 109.25 57.9645 108.727 57.6349 108.057C57.3092 107.383 57.1463 106.598 57.1463 105.705C57.1463 104.811 57.3092 104.023 57.6349 103.341C57.9645 102.655 58.4228 102.121 59.0099 101.739C59.6009 101.352 60.2902 101.159 61.0781 101.159C61.5327 101.159 61.9815 101.235 62.4247 101.386C62.8679 101.538 63.2713 101.784 63.6349 102.125C63.9986 102.462 64.2884 102.909 64.5043 103.466C64.7202 104.023 64.8281 104.708 64.8281 105.523V106.091H58.1009V104.932H63.4645C63.4645 104.439 63.366 104 63.169 103.614C62.9759 103.227 62.6993 102.922 62.3395 102.699C61.9834 102.475 61.563 102.364 61.0781 102.364C60.544 102.364 60.0819 102.496 59.6918 102.761C59.3054 103.023 59.008 103.364 58.7997 103.784C58.5914 104.205 58.4872 104.655 58.4872 105.136V105.909C58.4872 106.568 58.6009 107.127 58.8281 107.585C59.0592 108.04 59.3793 108.386 59.7884 108.625C60.1974 108.86 60.6728 108.977 61.2145 108.977C61.5668 108.977 61.8849 108.928 62.169 108.83C62.4569 108.727 62.705 108.576 62.9134 108.375C63.1217 108.17 63.2827 107.917 63.3963 107.614L64.6918 107.977C64.5554 108.417 64.3262 108.803 64.0043 109.136C63.6823 109.466 63.2846 109.723 62.8111 109.909C62.3376 110.091 61.8054 110.182 61.2145 110.182ZM70.6634 101.273V102.409H66.1406V101.273H70.6634ZM67.4588 99.1818H68.7997V107.5C68.7997 107.879 68.8546 108.163 68.9645 108.352C69.0781 108.538 69.2221 108.663 69.3963 108.727C69.5743 108.788 69.7618 108.818 69.9588 108.818C70.1065 108.818 70.2277 108.811 70.3224 108.795C70.4171 108.777 70.4929 108.761 70.5497 108.75L70.8224 109.955C70.7315 109.989 70.6046 110.023 70.4418 110.057C70.2789 110.095 70.0724 110.114 69.8224 110.114C69.4437 110.114 69.0724 110.032 68.7088 109.869C68.349 109.706 68.0497 109.458 67.8111 109.125C67.5762 108.792 67.4588 108.371 67.4588 107.864V99.1818ZM77.3622 110V98.3636H78.7713V103.545H84.9759V98.3636H86.3849V110H84.9759V104.795H78.7713V110H77.3622ZM92.5696 110.182C91.7817 110.182 91.0904 109.994 90.4957 109.619C89.9048 109.244 89.4427 108.72 89.1094 108.045C88.7798 107.371 88.6151 106.583 88.6151 105.682C88.6151 104.773 88.7798 103.979 89.1094 103.301C89.4427 102.623 89.9048 102.097 90.4957 101.722C91.0904 101.347 91.7817 101.159 92.5696 101.159C93.3575 101.159 94.0469 101.347 94.6378 101.722C95.2325 102.097 95.6946 102.623 96.0241 103.301C96.3575 103.979 96.5241 104.773 96.5241 105.682C96.5241 106.583 96.3575 107.371 96.0241 108.045C95.6946 108.72 95.2325 109.244 94.6378 109.619C94.0469 109.994 93.3575 110.182 92.5696 110.182ZM92.5696 108.977C93.1681 108.977 93.6605 108.824 94.0469 108.517C94.4332 108.21 94.7192 107.807 94.9048 107.307C95.0904 106.807 95.1832 106.265 95.1832 105.682C95.1832 105.098 95.0904 104.555 94.9048 104.051C94.7192 103.547 94.4332 103.14 94.0469 102.83C93.6605 102.519 93.1681 102.364 92.5696 102.364C91.9711 102.364 91.4787 102.519 91.0923 102.83C90.706 103.14 90.42 103.547 90.2344 104.051C90.0488 104.555 89.956 105.098 89.956 105.682C89.956 106.265 90.0488 106.807 90.2344 107.307C90.42 107.807 90.706 108.21 91.0923 108.517C91.4787 108.824 91.9711 108.977 92.5696 108.977ZM98.571 110V101.273H99.8665V102.636H99.9801C100.162 102.17 100.455 101.809 100.861 101.551C101.266 101.29 101.753 101.159 102.321 101.159C102.897 101.159 103.376 101.29 103.759 101.551C104.145 101.809 104.446 102.17 104.662 102.636H104.753C104.976 102.186 105.312 101.828 105.759 101.562C106.205 101.294 106.741 101.159 107.366 101.159C108.147 101.159 108.785 101.403 109.281 101.892C109.777 102.377 110.026 103.133 110.026 104.159V110H108.685V104.159C108.685 103.515 108.509 103.055 108.156 102.778C107.804 102.502 107.389 102.364 106.912 102.364C106.298 102.364 105.823 102.549 105.486 102.92C105.149 103.288 104.98 103.754 104.98 104.318V110H103.616V104.023C103.616 103.527 103.455 103.127 103.134 102.824C102.812 102.517 102.397 102.364 101.889 102.364C101.541 102.364 101.215 102.456 100.912 102.642C100.613 102.828 100.37 103.085 100.185 103.415C100.003 103.741 99.9119 104.117 99.9119 104.545V110H98.571ZM116.136 110.182C115.295 110.182 114.57 109.996 113.96 109.625C113.354 109.25 112.886 108.727 112.557 108.057C112.231 107.383 112.068 106.598 112.068 105.705C112.068 104.811 112.231 104.023 112.557 103.341C112.886 102.655 113.345 102.121 113.932 101.739C114.523 101.352 115.212 101.159 116 101.159C116.455 101.159 116.903 101.235 117.347 101.386C117.79 101.538 118.193 101.784 118.557 102.125C118.92 102.462 119.21 102.909 119.426 103.466C119.642 104.023 119.75 104.708 119.75 105.523V106.091H113.023V104.932H118.386C118.386 104.439 118.288 104 118.091 103.614C117.898 103.227 117.621 102.922 117.261 102.699C116.905 102.475 116.485 102.364 116 102.364C115.466 102.364 115.004 102.496 114.614 102.761C114.227 103.023 113.93 103.364 113.722 103.784C113.513 104.205 113.409 104.655 113.409 105.136V105.909C113.409 106.568 113.523 107.127 113.75 107.585C113.981 108.04 114.301 108.386 114.71 108.625C115.119 108.86 115.595 108.977 116.136 108.977C116.489 108.977 116.807 108.928 117.091 108.83C117.379 108.727 117.627 108.576 117.835 108.375C118.044 108.17 118.205 107.917 118.318 107.614L119.614 107.977C119.477 108.417 119.248 108.803 118.926 109.136C118.604 109.466 118.206 109.723 117.733 109.909C117.259 110.091 116.727 110.182 116.136 110.182Z" fill="#92C3F4"/>
<path d="M69.7178 53.0866L44.6257 74.3511C43.3922 75.3964 41.5 74.5197 41.5 72.9028C41.5 72.3316 41.7572 71.7907 42.2003 71.4302L69.7596 49.0092C70.4849 48.4191 71.5222 48.4103 72.2574 48.9879L83.4274 57.7644C84.0652 58.2655 85 57.8111 85 57V51.5C85 50.3954 85.8954 49.5 87 49.5H91C92.1046 49.5 93 50.3954 93 51.5V63.6335C93 64.1864 93.2288 64.7145 93.6321 65.0926L100.385 71.4231C100.777 71.7912 101 72.3053 101 72.8434C101 74.494 99.0749 75.3957 97.8068 74.339L72.2912 53.076C71.5447 52.4539 70.4591 52.4584 69.7178 53.0866Z" fill="#1F2937"/>
<path d="M47 76.8331V92.8504C47 93.955 47.8954 94.8504 49 94.8504H93C94.1046 94.8504 95 93.955 95 92.8504V76.8331C95 76.2377 94.7347 75.6733 94.2763 75.2933L72.2763 57.0579C71.5361 56.4443 70.4639 56.4443 69.7237 57.0579L47.7237 75.2933C47.2653 75.6733 47 76.2377 47 76.8331Z" fill="#1F2937"/>
<g clip-path="url(#clip0_69_5148)">
<path d="M67 87.25H62V79.5833H67V87.25ZM73 87.25H68V75.75H73V87.25ZM79 87.25H74V71.9166H79V87.25ZM80 91.0833H61V89.1666H80V91.0833Z" fill="#92C3F4"/>
</g>
<defs>
<clipPath id="clip0_69_5148">
<rect width="24" height="23" fill="white" transform="translate(58 71)"/>
</clipPath>
</defs>
</svg>
